<?xml version="1.0" encoding="UTF-8" standalone="no"?><!DOCTYPE svg PUBLIC "-//W3C//DTD SVG 1.1//EN" "http://www.w3.org/Graphics/SVG/1.1/DTD/svg11.dtd"><svg width="100%" height="100%" viewBox="0 0 348 352" version="1.1" xmlns="http://www.w3.org/2000/svg" xmlns:xlink="http://www.w3.org/1999/xlink" xml:space="preserve" xmlns:serif="http://www.serif.com/" style="fill-rule:evenodd;clip-rule:evenodd;stroke-linejoin:round;stroke-miterlimit:1.41421;"><path id="path1948" d="M171.621,0.003c-14.324,0.066 -28.003,1.288 -40.039,3.418c-35.457,6.264 -41.894,19.375 -41.894,43.555l0,31.933l83.789,0l0,10.645l-83.789,0l-31.446,0c-24.351,0 -45.674,14.636 -52.343,42.48c-7.694,31.916 -8.035,51.831 0,85.156c5.956,24.806 20.179,42.481 44.531,42.481l28.808,0l0,-38.281c0,-27.656 23.929,-52.051 52.344,-52.051l83.692,0c23.296,0 41.894,-19.182 41.894,-42.578l0,-79.785c0,-22.708 -19.156,-39.765 -41.894,-43.555c-14.394,-2.396 -29.329,-3.485 -43.653,-3.418Zm-45.312,25.683c8.655,0 15.722,7.184 15.722,16.016c0,8.801 -7.067,15.918 -15.722,15.918c-8.686,0 -15.723,-7.117 -15.723,-15.918c0,-8.832 7.037,-16.016 15.723,-16.016Z" style="fill:url(#_Linear1);fill-rule:nonzero;"/><path id="path1950" d="M267.617,89.554l0,37.207c0,28.846 -24.456,53.125 -52.343,53.125l-83.692,0c-22.924,0 -41.894,19.62 -41.894,42.578l0,79.785c0,22.707 19.745,36.063 41.894,42.578c26.523,7.799 51.957,9.208 83.692,0c21.094,-6.107 41.894,-18.399 41.894,-42.578l0,-31.934l-83.691,0l0,-10.644l125.586,0c24.351,0 33.425,-16.986 41.894,-42.481c8.748,-26.246 8.376,-51.486 0,-85.156c-6.018,-24.242 -17.512,-42.48 -41.894,-42.48l-31.446,0Zm-47.07,202.05c8.686,0 15.723,7.117 15.723,15.918c0,8.833 -7.037,16.016 -15.723,16.016c-8.655,0 -15.723,-7.183 -15.723,-16.016c0,-8.801 7.068,-15.918 15.723,-15.918Z" style="fill:url(#_Linear2);fill-rule:nonzero;"/><defs><linearGradient id="_Linear1" x1="0" y1="0" x2="1" y2="0" gradientUnits="userSpaceOnUse" gradientTransform="matrix(191.644,166.476,-166.476,191.644,2.73475e-07,2.37561e-07)"><stop offset="0" style="stop-color:#5a9fd4;stop-opacity:1"/><stop offset="1" style="stop-color:#306998;stop-opacity:1"/></linearGradient><linearGradient id="_Linear2" x1="0" y1="0" x2="1" y2="0" gradientUnits="userSpaceOnUse" gradientTransform="matrix(-68.436,-97.76,97.76,-68.436,218.533,304.838)"><stop offset="0" style="stop-color:#ffd43b;stop-opacity:1"/><stop offset="1" style="stop-color:#ffe873;stop-opacity:1"/></linearGradient></defs></svg>